<svg id="Layer_1" data-name="Layer 1" xmlns="http://www.w3.org/2000/svg" viewBox="0 0 1920 869.9"><defs><style>.cls-1{fill:#ff0;}.cls-2{fill:#fff;}</style></defs><path class="cls-1" d="M.67,1079.07V1016a299.49,299.49,0,0,1,299.5-299.5h1320a299.49,299.49,0,0,1,299.5,299.5v63.07Z" transform="translate(-0.17 -209.67)"/><path class="cls-2" d="M1620.17,717a298.77,298.77,0,0,1,299,299v62.57H1.17V1016a298.75,298.75,0,0,1,299-299h1320m0-1h-1320c-165.69,0-300,134.31-300,300v63.57h1920V1016c0-165.69-134.32-300-300-300Z" transform="translate(-0.17 -209.67)"/><polygon class="cls-1" points="960 0 1014.32 110.07 1135.79 127.72 1047.89 213.39 1068.64 334.37 960 277.25 851.36 334.37 872.11 213.39 784.21 127.72 905.68 110.07 960 0"/><polygon class="cls-1" points="960 153.33 740.03 534.33 1179.97 534.33 960 153.33"/></svg>